<svg xmlns="http://www.w3.org/2000/svg" width="24" height="24" viewBox="0 0 24 24">
  <g>
    <path d="M12,2A10,10,0,1,1,2,12,10,10,0,0,1,12,2m0-2A12,12,0,1,0,24,12,12,12,0,0,0,12,0Z" fill="#fff"/>
    <path d="M13,15H11V13.5a2.3,2.3,0,0,1,1.8-2.3,2,2,0,0,0,1.7-2A2.5,2.5,0,0,0,12,7a2.7,2.7,0,0,0-1.9.8,1.6,1.6,0,0,0-.6,1.3h-2A3.9,3.9,0,0,1,8.7,6.3,4.7,4.7,0,0,1,12,5h.1a4.3,4.3,0,0,1,4.4,4.2,4.1,4.1,0,0,1-3.2,4,.3.3,0,0,0-.3.3Z" fill="#fff"/>
    <circle cx="12" cy="18" r="1.8" fill="#fff"/>
  </g>
</svg>
